<svg xmlns="http://www.w3.org/2000/svg" xmlns:xlink="http://www.w3.org/1999/xlink" width="1024" zoomAndPan="magnify" viewBox="0 0 768 767.999994" height="1024" preserveAspectRatio="xMidYMid meet" version="1.0"><defs><clipPath id="218537b8a2"><path d="M 150 0 L 618 0 C 700.84375 0 768 67.15625 768 150 L 768 618 C 768 700.84375 700.84375 768 618 768 L 150 768 C 67.15625 768 0 700.84375 0 618 L 0 150 C 0 67.15625 67.15625 0 150 0 Z M 150 0 " clip-rule="nonzero"/></clipPath></defs><g clip-path="url(#218537b8a2)"><rect x="-76.8" width="921.6" fill="#111111" y="-76.799999" height="921.599993" fill-opacity="1"/></g><path stroke-linecap="round" transform="matrix(25.781249, 0, 0, 25.781249, 74.706386, 74.706403)" fill="none" stroke-linejoin="round" d="M 11.100026 7.100025 C 11.594571 7.096691 12.088359 7.115479 12.581389 7.15654 C 13.074268 7.197449 13.56442 7.260328 14.051692 7.345328 C 14.538965 7.430176 15.021389 7.536691 15.499117 7.664873 C 15.976844 7.793055 16.447905 7.942298 16.912299 8.112752 C 17.376693 8.283207 17.83245 8.473964 18.279723 8.685328 C 18.726844 8.89654 19.163814 9.127449 19.590329 9.377904 C 20.016844 9.628207 20.43139 9.897298 20.833814 10.184873 C 21.236238 10.472449 21.624875 10.777601 22.000026 11.100025 " stroke="#ffffff" stroke-width="2" stroke-opacity="1" stroke-miterlimit="4"/><path stroke-linecap="round" transform="matrix(25.781249, 0, 0, 25.781249, 74.706386, 74.706403)" fill="none" stroke-linejoin="round" d="M 12.000026 12.000025 C 11.871692 12.172601 11.738965 12.341692 11.601844 12.507449 C 11.464874 12.673207 11.323662 12.835328 11.178359 12.993813 C 11.033056 13.152298 10.883813 13.306995 10.73048 13.457904 C 10.577298 13.608813 10.420177 13.755631 10.259419 13.89851 C 10.098662 14.041389 9.934419 14.180025 9.766541 14.314419 C 9.598662 14.448813 9.42745 14.578813 9.252904 14.704571 C 9.078359 14.830177 8.900783 14.951237 8.720025 15.067904 C 8.539268 15.184419 8.355632 15.296237 8.169268 15.403358 C 7.982753 15.510631 7.793662 15.612904 7.601995 15.710328 C 7.410328 15.807904 7.216238 15.900328 7.019722 15.987904 C 6.823359 16.07548 6.624722 16.157904 6.424116 16.235328 C 6.22351 16.312601 6.020934 16.384874 5.816692 16.451843 C 5.612298 16.518813 5.406389 16.580631 5.198813 16.636995 C 4.991237 16.69351 4.78245 16.744571 4.572298 16.790328 C 4.362298 16.836237 4.151086 16.87654 3.938813 16.91154 C 3.726692 16.946389 3.513662 16.975934 3.300025 17.000025 " stroke="#ffffff" stroke-width="2" stroke-opacity="1" stroke-miterlimit="4"/><path stroke-linecap="round" transform="matrix(25.781249, 0, 0, 25.781249, 74.706386, 74.706403)" fill="none" stroke-linejoin="round" d="M 16.800026 13.600025 C 16.55442 14.034722 16.289723 14.457449 16.005783 14.868207 C 15.721996 15.278965 15.420026 15.676086 15.100329 16.059419 C 14.78048 16.442904 14.443965 16.811086 14.090935 17.164116 C 13.737753 17.516995 13.36942 17.853359 12.985783 18.173056 C 12.602298 18.492601 12.205026 18.794268 11.794117 19.078056 C 11.383359 19.361692 10.96048 19.626237 10.525632 19.871692 C 10.090783 20.117147 9.645783 20.342298 9.190632 20.54745 C 8.73548 20.752601 8.271844 20.936844 7.800025 21.100025 " stroke="#ffffff" stroke-width="2" stroke-opacity="1" stroke-miterlimit="4"/><path stroke-linecap="round" transform="matrix(25.781249, 0, 0, 25.781249, 74.706386, 74.706403)" fill="none" stroke-linejoin="round" d="M 20.700026 17.000025 C 20.570632 16.82851 20.436996 16.660328 20.299117 16.495631 C 20.161238 16.330783 20.019268 16.169571 19.873208 16.011995 C 19.727299 15.854268 19.577299 15.70048 19.423662 15.550328 C 19.269874 15.400328 19.11245 15.254116 18.95139 15.111995 C 18.790177 14.969874 18.625632 14.831843 18.457602 14.697904 C 18.289571 14.564116 18.118208 14.434571 17.943662 14.309268 C 17.769117 14.184116 17.59139 14.063207 17.410783 13.946995 C 17.230177 13.830631 17.046693 13.718964 16.860329 13.611995 C 16.674117 13.504874 16.485177 13.402601 16.293814 13.305025 C 16.102299 13.207449 15.908662 13.114874 15.71245 13.026995 C 15.516389 12.939267 15.318208 12.856389 15.117905 12.778661 C 14.917602 12.700783 14.715632 12.628055 14.511692 12.56048 C 14.307753 12.492752 14.102147 12.430328 13.895177 12.373055 C 13.688056 12.315783 13.479571 12.263661 13.269874 12.216995 C 13.060177 12.170176 12.84942 12.128661 12.637753 12.092449 C 12.425935 12.056237 12.213359 12.02548 12.000026 12.000025 C 11.919723 11.801995 11.844268 11.602298 11.77351 11.400631 C 11.702753 11.199116 11.636995 10.995934 11.576086 10.791086 C 11.515329 10.586389 11.459268 10.380328 11.408359 10.172904 C 11.35745 9.965328 11.311541 9.756843 11.27048 9.547146 C 11.229571 9.337449 11.193813 9.126995 11.163056 8.915479 C 11.132298 8.704116 11.106541 8.492146 11.086086 8.27957 C 11.06548 8.066843 11.050026 7.853813 11.039874 7.640479 C 11.029571 7.427146 11.02442 7.213661 11.02442 7.000025 C 11.02442 6.786388 11.029571 6.572903 11.039874 6.35957 C 11.050026 6.146085 11.06548 5.933055 11.086086 5.720479 C 11.106541 5.507903 11.132298 5.295782 11.163056 5.084419 C 11.193813 4.873055 11.229571 4.662449 11.27048 4.452903 C 11.311541 4.243206 11.35745 4.03457 11.408359 3.827146 C 11.459268 3.619722 11.515329 3.413661 11.576086 3.208812 C 11.636995 3.004115 11.702753 2.800934 11.77351 2.599267 C 11.844268 2.397752 11.919723 2.197903 12.000026 2.000024 " stroke="#ffffff" stroke-width="2" stroke-opacity="1" stroke-miterlimit="4"/><path stroke-linecap="round" transform="matrix(25.781249, 0, 0, 25.781249, 74.706386, 74.706403)" fill="none" stroke-linejoin="round" d="M 6.300025 3.800025 C 6.203207 4.287146 6.12851 4.7776 6.075934 5.271388 C 6.023207 5.765328 5.992904 6.260479 5.984874 6.757146 C 5.976844 7.253661 5.991086 7.74957 6.027753 8.244873 C 6.064419 8.740176 6.123207 9.232752 6.204116 9.722752 C 6.285025 10.212752 6.387904 10.698207 6.51245 11.178964 C 6.637147 11.659722 6.783207 12.133813 6.95048 12.601389 C 7.117904 13.068964 7.305783 13.528207 7.514571 13.978813 C 7.723207 14.429571 7.951692 14.869874 8.200025 15.300025 " stroke="#ffffff" stroke-width="2" stroke-opacity="1" stroke-miterlimit="4"/><path stroke-linecap="round" transform="matrix(25.781249, 0, 0, 25.781249, 74.706386, 74.706403)" fill="none" stroke-linejoin="round" d="M 22.000026 12.000025 C 22.000026 12.163661 21.995935 12.327146 21.987905 12.490631 C 21.979875 12.654116 21.967905 12.817298 21.951844 12.980177 C 21.935784 13.143055 21.915784 13.30548 21.891693 13.467298 C 21.867753 13.629116 21.839723 13.790328 21.807905 13.950934 C 21.775935 14.111389 21.740026 14.271086 21.700329 14.429874 C 21.660481 14.58851 21.616844 14.746237 21.56942 14.902904 C 21.521844 15.059419 21.470632 15.214874 21.415481 15.368965 C 21.360329 15.523055 21.30139 15.675631 21.238814 15.826843 C 21.176238 15.978055 21.109875 16.127601 21.039875 16.27548 C 20.969875 16.42351 20.89639 16.569571 20.819268 16.713965 C 20.741996 16.858359 20.66139 17.000631 20.577299 17.141086 C 20.493208 17.281389 20.405632 17.419571 20.314723 17.555631 C 20.223814 17.691843 20.129571 17.82548 20.032147 17.956995 C 19.934571 18.08851 19.833965 18.21745 19.730178 18.343965 C 19.626238 18.47048 19.51942 18.594268 19.409571 18.715631 C 19.299571 18.836843 19.186844 18.955328 19.071087 19.071086 C 18.955329 19.186844 18.836844 19.299571 18.715632 19.409571 C 18.594268 19.519419 18.47048 19.626237 18.343965 19.730177 C 18.21745 19.833965 18.088511 19.934571 17.956996 20.032147 C 17.82548 20.129571 17.691844 20.223813 17.555632 20.314722 C 17.419571 20.405631 17.28139 20.493207 17.141086 20.577298 C 17.000632 20.661389 16.858359 20.741995 16.713965 20.819268 C 16.569571 20.896389 16.423511 20.969874 16.27548 21.039874 C 16.127602 21.109874 15.978056 21.176238 15.826844 21.238813 C 15.675632 21.301389 15.523056 21.360328 15.368965 21.41548 C 15.214874 21.470632 15.05942 21.521844 14.902905 21.569419 C 14.746238 21.616844 14.588511 21.66048 14.429874 21.700328 C 14.271086 21.740025 14.111389 21.775935 13.950935 21.807904 C 13.790329 21.839722 13.629117 21.867753 13.467298 21.891692 C 13.30548 21.915783 13.143056 21.935783 12.980177 21.951844 C 12.817298 21.967904 12.654117 21.979874 12.490632 21.987904 C 12.327147 21.995935 12.163662 22.000025 12.000026 22.000025 C 11.836389 22.000025 11.672753 21.995935 11.509268 21.987904 C 11.345935 21.979874 11.182753 21.967904 11.019874 21.951844 C 10.856995 21.935783 10.694571 21.915783 10.532753 21.891692 C 10.370783 21.867753 10.209571 21.839722 10.049116 21.807904 C 9.88851 21.775935 9.728965 21.740025 9.570177 21.700328 C 9.411389 21.66048 9.253813 21.616844 9.097147 21.569419 C 8.94048 21.521844 8.785177 21.470632 8.631086 21.41548 C 8.476995 21.360328 8.324419 21.301389 8.173207 21.238813 C 8.021995 21.176238 7.87245 21.109874 7.724419 21.039874 C 7.576541 20.969874 7.430328 20.896389 7.286086 20.819268 C 7.141692 20.741995 6.999419 20.661389 6.858965 20.577298 C 6.718662 20.493207 6.580328 20.405631 6.444268 20.314722 C 6.308207 20.223813 6.174419 20.129571 6.043056 20.032147 C 5.91154 19.934571 5.782601 19.833965 5.656086 19.730177 C 5.529571 19.626237 5.405631 19.519419 5.284419 19.409571 C 5.163207 19.299571 5.044722 19.186844 4.928965 19.071086 C 4.813207 18.955328 4.700328 18.836843 4.59048 18.715631 C 4.480631 18.594268 4.373662 18.47048 4.269874 18.343965 C 4.166086 18.21745 4.06548 18.08851 3.967904 17.956995 C 3.87048 17.82548 3.776237 17.691843 3.685328 17.555631 C 3.594419 17.419571 3.506843 17.281389 3.422752 17.141086 C 3.33851 17.000631 3.257904 16.858359 3.180783 16.713965 C 3.103662 16.569571 3.030025 16.42351 2.960177 16.27548 C 2.890177 16.127601 2.823813 15.978055 2.761237 15.826843 C 2.69851 15.675631 2.639722 15.523055 2.584571 15.368965 C 2.529419 15.214874 2.478055 15.059419 2.430631 14.902904 C 2.383055 14.746237 2.339419 14.58851 2.299722 14.429874 C 2.259874 14.271086 2.224116 14.111389 2.192146 13.950934 C 2.160177 13.790328 2.132298 13.629116 2.108207 13.467298 C 2.084268 13.30548 2.064268 13.143055 2.048207 12.980177 C 2.032146 12.817298 2.020025 12.654116 2.011995 12.490631 C 2.003965 12.327146 2.000025 12.163661 2.000025 12.000025 C 2.000025 11.836389 2.003965 11.672752 2.011995 11.509267 C 2.020025 11.345934 2.032146 11.182752 2.048207 11.019873 C 2.064268 10.856995 2.084268 10.69457 2.108207 10.532752 C 2.132298 10.370782 2.160177 10.20957 2.192146 10.049116 C 2.224116 9.88851 2.259874 9.728964 2.299722 9.570176 C 2.339419 9.411388 2.383055 9.253813 2.430631 9.097146 C 2.478055 8.940479 2.529419 8.785176 2.584571 8.631085 C 2.639722 8.476994 2.69851 8.324419 2.761237 8.173207 C 2.823813 8.021994 2.890177 7.872449 2.960177 7.724419 C 3.030025 7.57654 3.103662 7.430328 3.180783 7.286085 C 3.257904 7.141691 3.33851 6.999419 3.422752 6.858964 C 3.506843 6.718661 3.594419 6.580328 3.685328 6.444267 C 3.776237 6.308207 3.87048 6.174419 3.967904 6.043055 C 4.06548 5.91154 4.166086 5.7826 4.269874 5.656085 C 4.373662 5.52957 4.480631 5.405631 4.59048 5.284419 C 4.700328 5.163206 4.813207 5.044722 4.928965 4.928964 C 5.044722 4.813206 5.163207 4.700328 5.284419 4.590479 C 5.405631 4.480631 5.529571 4.373661 5.656086 4.269873 C 5.782601 4.166085 5.91154 4.065479 6.043056 3.967903 C 6.174419 3.870479 6.308207 3.776237 6.444268 3.685328 C 6.580328 3.594418 6.718662 3.506843 6.858965 3.422752 C 6.999419 3.338509 7.141692 3.257903 7.286086 3.180782 C 7.430328 3.103661 7.576541 3.030025 7.724419 2.960176 C 7.87245 2.890176 8.021995 2.823812 8.173207 2.761237 C 8.324419 2.698509 8.476995 2.639721 8.631086 2.58457 C 8.785177 2.529418 8.94048 2.478055 9.097147 2.430631 C 9.253813 2.383055 9.411389 2.339418 9.570177 2.299721 C 9.728965 2.259873 9.88851 2.224115 10.049116 2.192146 C 10.209571 2.160176 10.370783 2.132297 10.532753 2.108206 C 10.694571 2.084267 10.856995 2.064267 11.019874 2.048206 C 11.182753 2.032146 11.345935 2.020024 11.509268 2.011994 C 11.672753 2.003964 11.836389 2.000024 12.000026 2.000024 C 12.163662 2.000024 12.327147 2.003964 12.490632 2.011994 C 12.654117 2.020024 12.817298 2.032146 12.980177 2.048206 C 13.143056 2.064267 13.30548 2.084267 13.467298 2.108206 C 13.629117 2.132297 13.790329 2.160176 13.950935 2.192146 C 14.111389 2.224115 14.271086 2.259873 14.429874 2.299721 C 14.588511 2.339418 14.746238 2.383055 14.902905 2.430631 C 15.05942 2.478055 15.214874 2.529418 15.368965 2.58457 C 15.523056 2.639721 15.675632 2.698509 15.826844 2.761237 C 15.978056 2.823812 16.127602 2.890176 16.27548 2.960176 C 16.423511 3.030025 16.569571 3.103661 16.713965 3.180782 C 16.858359 3.257903 17.000632 3.338509 17.141086 3.422752 C 17.28139 3.506843 17.419571 3.594418 17.555632 3.685328 C 17.691844 3.776237 17.82548 3.870479 17.956996 3.967903 C 18.088511 4.065479 18.21745 4.166085 18.343965 4.269873 C 18.47048 4.373661 18.594268 4.480631 18.715632 4.590479 C 18.836844 4.700328 18.955329 4.813206 19.071087 4.928964 C 19.186844 5.044722 19.299571 5.163206 19.409571 5.284419 C 19.51942 5.405631 19.626238 5.52957 19.730178 5.656085 C 19.833965 5.7826 19.934571 5.91154 20.032147 6.043055 C 20.129571 6.174419 20.223814 6.308207 20.314723 6.444267 C 20.405632 6.580328 20.493208 6.718661 20.577299 6.858964 C 20.66139 6.999419 20.741996 7.141691 20.819268 7.286085 C 20.89639 7.430328 20.969875 7.57654 21.039875 7.724419 C 21.109875 7.872449 21.176238 8.021994 21.238814 8.173207 C 21.30139 8.324419 21.360329 8.476994 21.415481 8.631085 C 21.470632 8.785176 21.521844 8.940479 21.56942 9.097146 C 21.616844 9.253813 21.660481 9.411388 21.700329 9.570176 C 21.740026 9.728964 21.775935 9.88851 21.807905 10.049116 C 21.839723 10.20957 21.867753 10.370782 21.891693 10.532752 C 21.915784 10.69457 21.935784 10.856995 21.951844 11.019873 C 21.967905 11.182752 21.979875 11.345934 21.987905 11.509267 C 21.995935 11.672752 22.000026 11.836389 22.000026 12.000025 Z M 22.000026 12.000025 " stroke="#ffffff" stroke-width="2" stroke-opacity="1" stroke-miterlimit="4"/></svg>